<?xml version="1.0" encoding="UTF-8" standalone="no"?>
<!-- Created with Inkscape (http://www.inkscape.org/) -->

<svg
   version="1.1"
   id="svg1"
   width="1706.6667"
   height="1285.3333"
   viewBox="0 0 1706.6667 1285.3333"
   sodipodi:docname="LOGO.svg"
   inkscape:version="1.4.3 (0d15f75, 2025-12-25)"
   xmlns:inkscape="http://www.inkscape.org/namespaces/inkscape"
   xmlns:sodipodi="http://sodipodi.sourceforge.net/DTD/sodipodi-0.dtd"
   xmlns="http://www.w3.org/2000/svg"
   xmlns:svg="http://www.w3.org/2000/svg">
  <defs
     id="defs1" />
  <sodipodi:namedview
     id="namedview1"
     pagecolor="#ffffff"
     bordercolor="#000000"
     borderopacity="0.25"
     inkscape:showpageshadow="2"
     inkscape:pageopacity="0.0"
     inkscape:pagecheckerboard="0"
     inkscape:deskcolor="#d1d1d1"
     inkscape:zoom="0.65025954"
     inkscape:cx="894.25831"
     inkscape:cy="612.83222"
     inkscape:window-width="1920"
     inkscape:window-height="1009"
     inkscape:window-x="1912"
     inkscape:window-y="-8"
     inkscape:window-maximized="1"
     inkscape:current-layer="g1" />
  <g
     inkscape:groupmode="layer"
     inkscape:label="Image"
     id="g1">
    <path
       style="fill:#000000"
       d="m 821.29732,999.61449 c -11.881,-1.27591 -48.8343,-12.10783 -51.3333,-15.04703 -0.3667,-0.43126 -4.6545,-2.69785 -9.5285,-5.03685 -4.874,-2.33901 -10.9526,-6.08847 -13.508,-8.33213 -2.5553,-2.24365 -8.8449,-7.22992 -13.9769,-11.08058 -15.8973,-11.92834 -30.2779,-24.55404 -37.7884,-33.1769 -3.959,-4.54537 -7.8346,-8.91531 -8.6125,-9.71098 -4.5938,-4.6988 -19.4406,-25.51247 -23.8583,-33.44666 -9.0774,-16.3032 -14.0607,-26.29572 -14.0607,-28.19422 0,-1.01308 -0.6,-3.03382 -1.3334,-4.49054 -0.7333,-1.45672 -1.9428,-3.85571 -2.6878,-5.33111 -1.5793,-3.12759 -3.6323,-9.38558 -8.5244,-25.98413 -5.4625,-18.53384 -5.6833,-19.35171 -8.1001,-30 -1.2483,-5.5 -2.8005,-12.1 -3.4493,-14.66666 -0.6488,-2.56667 -2.0904,-10.66667 -3.2035,-18 -1.1132,-7.33334 -2.5949,-16.33333 -3.2927,-20 -1.6774,-8.81401 -3.8709,-26.06297 -5.5107,-43.33333 -3.2093,-33.7994 -3.822,-39.96304 -5.037,-50.66667 -0.7076,-6.23333 -1.9607,-20.93333 -2.7848,-32.66666 -0.824,-11.73333 -2.0744,-27.03333 -2.7785,-34 -0.7041,-6.96666 -2.179,-30.36666 -3.2775,-51.99999 -1.0985,-21.63334 -2.6062,-49.53333 -3.3505,-62 -0.7442,-12.46667 -1.715,-33.93067 -2.1573,-47.69778 -0.6848,-21.31584 -1.1288,-25.20211 -2.9917,-26.18322 -1.2031,-0.63366 -12.0875,-1.51291 -24.1875,-1.95389 -36.0409,-1.31348 -41.6523,-1.98366 -44.3037,-5.29127 -3.4676,-4.32582 -3.1943,-15.71157 0.4562,-19.00052 2.6108,-2.35228 5.239,-2.53998 35.5648,-2.53998 h 32.7458 l 0.1018,-60.66666 c 0.1067,-63.59825 0.1853,-64.50378 5.9862,-68.95759 2.9168,-2.23944 12.8446,-2.12289 15.1453,0.17779 1.9416,1.94159 1.9945,2.68888 4.9649,70.11313 0.6946,15.76667 1.8658,35.86666 2.6026,44.66666 0.7368,8.8 1.3538,16.66505 1.3712,17.4779 0.061,2.84678 51.6078,3.41747 164.4997,1.82119 119.5021,-1.68974 145.2251,-1.13336 150.064,3.24583 1.4338,1.29758 3.0067,4.72554 3.4954,7.61769 1.1109,6.57536 -1.4543,10.9049 -8.387,14.15581 -4.6314,2.17175 -13.2358,2.31807 -124.9739,2.12525 -66,-0.1139 -133.7872,-0.84304 -150.6383,-1.62033 -17.0395,-0.78598 -31.1461,-0.9056 -31.1822,-0.26952 -1.2066,1.20666 0.3846,44.28038 3.7477,101.44617 1.1001,18.7 2.6144,45.1 3.3652,58.66667 0.7507,13.56666 1.8936,33.06666 2.5397,43.33333 0.6461,10.26666 1.859,30.96666 2.6954,45.99999 0.8364,15.03334 2.0948,29.89195 2.7966,33.01914 0.7018,3.12719 1.2759,8.3438 1.2759,11.59247 0,7.66894 3.5998,48.21051 5.2733,59.38839 0.7136,4.76666 1.9531,13.46666 2.7544,19.33333 1.4176,10.37837 4.1527,24.53458 6.5691,34 5.4801,21.466 9.2062,33.67438 13.0225,42.66666 3.2159,7.57767 12.5764,25.71549 15.2445,29.53916 1.3583,1.94654 2.4696,3.90332 2.4696,4.34841 0,1.38142 10.849,17.07356 17.1314,24.7791 13.4402,16.48479 35.5336,37.166 50.2019,46.993 2.9333,1.96518 7.762,5.29849 10.7305,7.40736 7.8587,5.5831 21.3352,12.73255 31.2695,16.58884 29.0453,11.27476 68.5096,11.22257 91.9171,-0.12157 3.2544,-1.5772 6.3666,-2.86764 6.916,-2.86764 0.5494,0 8.5257,-3.6 17.7251,-8 9.1995,-4.4 17.0197,-8 17.3784,-8 2.3057,0 12.9625,-9.12852 13.594,-11.6445 1.0604,-4.22516 6.7049,-8.3555 11.4185,-8.3555 5.1105,0 11.7176,6.43269 11.7176,11.4084 0,2.7334 -2.3724,5.9247 -9.7402,13.10256 -14.1742,13.80874 -19.3694,17.55676 -35.2941,25.46295 -21.6436,10.74536 -25.1175,12.00003 -47.9781,17.32798 -9.5001,2.21414 -39.3054,3.71226 -50.321,2.52925 z m 66,-110.70228 c -3.3,-1.88387 -6.9,-4.28291 -8,-5.33118 -1.1,-1.04828 -4.349,-3.60091 -7.22,-5.67252 -2.871,-2.0716 -6.471,-5.88797 -8,-8.4808 -1.529,-2.59284 -6.4274,-9.42353 -10.8853,-15.1793 -10.7408,-13.86783 -14.7278,-21.27128 -16.6115,-30.84628 -1.76,-8.94552 -0.7937,-12.13071 4.7896,-15.78904 4.2149,-2.76169 12.2003,-1.65174 14.7979,2.05689 2.7278,3.89446 28.023,10.81954 39.2145,10.73578 5.3258,-0.0399 21.7241,-3.04649 34.8768,-6.39463 12.6273,-3.21439 22.9933,-12.09755 42.3952,-36.33065 9.95091,-12.42872 11.68501,-15.28317 10.56081,-17.3838 -0.7398,-1.38232 -1.79221,-2.51332 -2.33871,-2.51332 -0.5465,0 -4.6105,-4.35 -9.031,-9.66666 -20.9502,-25.19705 -44.2279,-64.46201 -51.2538,-86.45503 -1.4584,-4.5653 -3.1382,-8.95554 -3.7329,-9.75609 -0.5947,-0.80055 -1.8518,-4.15554 -2.7936,-7.45554 -0.9418,-3.3 -2.3336,-7.5 -3.093,-9.33333 -0.7593,-1.83334 -1.9243,-5.73334 -2.5887,-8.66667 -0.6645,-2.93333 -1.7606,-7.43333 -2.4357,-10 -3.9517,-15.02283 -6.6096,-27.26335 -7.9616,-36.66666 -1.3068,-9.08918 -1.2247,-11.39979 0.5554,-15.62385 2.6856,-6.37299 2.685,-6.37615 -1.219,-6.37615 -2.5337,0 -3.4875,0.85814 -4.0752,3.66666 -4.1858,20.00229 -8.3438,27.82583 -24.798,46.659 -7.602,8.70103 -27.3521,25.76045 -36.9146,31.88543 -3.9027,2.49975 -11.7027,6.09296 -17.3334,7.9849 -18.2051,6.11705 -47.4376,4.43496 -64.8213,-3.72994 -2.8877,-1.35633 -5.7022,-2.46606 -6.2544,-2.46606 -1.7702,0 -23.0415,-10.52771 -26.4951,-13.11313 -1.8334,-1.37243 -6.8771,-4.83343 -11.2084,-7.6911 -4.3312,-2.85767 -10.2031,-8.12727 -13.0485,-11.71021 -5.1356,-6.46676 -13.648,-22.92652 -17.7124,-34.24933 -1.1654,-3.24659 -3.149,-8.60289 -4.4081,-11.90289 -3.064,-8.03042 -3.0249,-47.51458 0.058,-58.66666 6.0296,-21.81133 22.3413,-45.32951 38.9859,-56.21016 17.9267,-11.71867 20.3919,-12.4445 42.6667,-12.56208 12.5321,-0.0662 21.0875,-0.68849 22.9124,-1.66667 5.1652,-2.76868 14.0632,-1.64197 30.421,3.85205 30.5987,10.2771 51.3772,22.42512 67.5247,39.47794 14.0506,14.83847 18.5283,24.57599 20.3901,44.34178 0.3748,3.97807 1.4472,7.72791 2.3832,8.33297 0.9361,0.60507 10.0463,0.95028 20.2449,0.76714 l 18.543,-0.33297 2.2182,-10.66667 c 2.0424,-9.82163 3.3442,-14.45111 7.1238,-25.33333 5.5653,-16.02408 36.054,-46.14436 55.57211,-54.90058 3.29997,-1.48046 9.29997,-3.75908 13.33327,-5.0636 4.0334,-1.30452 8.7116,-2.89625 10.3961,-3.53717 7.2962,-2.77607 41.5057,-0.88815 50.2706,2.77428 15.9704,6.67326 32.322,17.3104 37.1033,24.13657 0.9615,1.37276 5.0066,5.98853 8.9891,10.25725 22.9417,24.59054 29.5288,36.09875 33.7894,59.03328 2.3785,12.80314 -1.1127,35.52574 -8.8037,57.29996 -0.3886,1.1 -1.7812,5.3 -3.0947,9.33333 -3.6682,11.26354 -11.7776,22.38336 -23.1251,31.70964 -20.6045,16.93443 -36.3199,21.84387 -70.5494,22.03947 -18.781,0.10733 -22.3746,-0.50704 -40.9756,-7.00516 -4.4,-1.53711 -9.97537,-3.72351 -12.38967,-4.85868 -2.4144,-1.13516 -6.3144,-2.79211 -8.6667,-3.68211 -5.51071,-2.08499 -11.20101,-5.48251 -21.10691,-12.60236 -14.175,-10.18828 -23.6483,-29.00653 -28.9967,-57.60079 -0.8371,-4.47564 -1.1314,-4.68331 -7.1897,-5.07306 l -6.317,-0.40639 v 12.15586 c 0,6.68572 0.8325,14.9686 1.8499,18.40639 1.0174,3.43779 2.5824,9.55053 3.4779,13.58386 0.8954,4.03333 3.063,11.57844 4.8168,16.76691 1.7538,5.18846 3.1888,10.47572 3.1888,11.74947 0,3.01075 4.0511,15.77899 5.526,17.41695 0.6274,0.69667 1.1406,2.35481 1.1406,3.68476 0,1.32995 0.5347,3.45995 1.1882,4.73333 0.6536,1.27339 3.1241,6.51524 5.4901,11.64858 4.4382,9.62932 13.3994,22.15818 36.95881,51.67317 16.08507,20.15118 20.40417,27.11854 20.57037,33.18296 0.067,2.46246 0.7196,7.00284 1.4491,10.08974 0.7295,3.0869 0.921,7.22754 0.4256,9.20144 -0.9513,3.79039 -22.04857,25.36009 -42.74878,43.70613 -15.8855,14.07884 -32.0417,24.41144 -41.7174,26.68005 -17.9484,4.20828 -23.6715,4.80377 -33.6818,3.50469 -12.6998,-1.6481 -13.2675,-1.64729 -13.2675,0.0189 0,2.11224 11.0328,13.45683 19.5132,20.06466 12.0386,9.38031 12.4868,9.96588 12.4868,16.31246 0,11.2146 -9.4934,14.78705 -21.3333,8.02794 z m -89.4425,-263.30448 c 16.4771,-2.83317 25.5853,-8.49984 46.3897,-28.8614 19.1836,-18.77523 21.4013,-22.07972 22.1215,-32.96295 l 0.2647,-4 -35.0858,0.40761 -35.0858,0.40761 -6.0163,4.59239 c -5.9593,4.54882 -6.1469,4.59239 -19.7732,4.59239 -13.4703,0 -13.8469,-0.084 -18.0747,-4.03341 -4.219,-3.94111 -4.302,-4.23858 -3.6287,-13 0.4946,-6.43735 1.7453,-10.84709 4.4338,-15.63326 6.2784,-11.17708 6.8014,-11.41361 23.0742,-10.43471 8.2729,0.49766 15.3199,1.60523 16.9557,2.66494 2.2229,1.44001 10.3212,1.74024 39.3333,1.45823 l 36.5341,-0.35512 0.444,-3.89526 c 0.4896,-4.29539 -2.8263,-16.17406 -6.5425,-23.43808 -3.4573,-6.75785 -8.3579,-11.47621 -18.4597,-17.77348 -4.9054,-3.05791 -10.0865,-6.29326 -11.5137,-7.18965 -6.0538,-3.80248 -18.3773,-8.80647 -28.9804,-11.76752 -6.5532,-1.83008 -8.7073,-1.90233 -14.2632,-0.47839 -5.6268,1.4421 -7.2551,1.37236 -11.6144,-0.49743 -6.199,-2.65891 -21.3422,-4.96019 -32.6397,-4.96019 -11.7293,0 -19.6325,4.30039 -32.8003,17.84782 -13.0676,13.44436 -16.0246,18.66149 -19.5927,34.56825 -2.3914,10.66107 -2.6696,32.46472 -0.5424,42.5183 3.7034,17.50359 14.9014,36.98817 26.814,46.65679 12.9633,10.52133 43.5922,21.70329 68.2485,24.91599 0.6733,0.0877 5.1733,-0.51953 10,-1.34947 z m 268.90688,-3.76544 c 22.9949,-5.0522 28.5572,-7.28142 38.7145,-15.51566 5.7107,-4.62951 12.9326,-17.79865 16.3842,-29.87659 0.9431,-3.3 2.2057,-7.27608 2.8057,-8.83573 3.6262,-9.42477 5.5233,-21.47436 5.0756,-32.23847 -0.4064,-9.77066 -1.1712,-13.03068 -4.8665,-20.74411 -5.9435,-12.40607 -13.311,-22.33142 -25.0914,-33.80256 -9.3067,-9.06241 -25.5524,-21.71245 -27.8841,-21.71245 -0.5824,0 -2.1299,-0.96913 -3.4387,-2.15361 -1.855,-1.67877 -5.592,-2.19323 -16.9491,-2.33333 -12.3987,-0.15295 -14.9731,0.18349 -17.2792,2.25822 -2.5879,2.32826 -2.8697,2.33318 -6.2635,0.10945 -3.3317,-2.18296 -3.7891,-2.1895 -7.3185,-0.10462 -2.0706,1.22314 -4.6101,2.22389 -5.6432,2.22389 -1.9535,0 -17.93627,9.25111 -22.66327,13.11791 -8.5723,7.01235 -21.29861,21.37035 -24.21771,27.32271 -4.0027,8.16198 -7.4958,19.87502 -7.4958,25.13471 0,4.45452 -0.9262,4.38111 21.33341,1.69099 9.1666,-1.10781 22.96657,-2.58377 30.66657,-3.27992 25.2568,-2.28343 25.3263,-2.30326 32.6667,-9.31378 8.7782,-8.38376 10.937,-9.34477 20.9123,-9.30965 9.0425,0.0318 12.0063,1.54488 16.1736,8.25678 3.5529,5.72239 2.7883,12.76319 -2.5841,23.7936 -2.6573,5.45599 -6.0435,11.25038 -7.5248,12.87643 -6.4155,7.04218 -23.9087,8.87311 -34.9079,3.65364 -3.2172,-1.52666 -6.1888,-1.97374 -9.091,-1.36775 -2.3713,0.49516 -18.6279,1.39035 -36.12577,1.98932 -22.19711,0.75982 -32.11221,1.5707 -32.79921,2.68238 -1.1664,1.88717 4.0836,22.7366 7.4079,29.41928 1.2767,2.56667 3.6167,6.6034 5.1998,8.97051 6.5245,9.75548 25.53661,20.25065 44.00588,24.29247 28.2213,6.17597 33.9727,6.49253 50.7976,2.79594 z M 1022.5756,263.3502 c -6.037,-2.82402 -12.1889,-9.41864 -13.4413,-14.40854 -1.4418,-5.7448 0.261,-15.9479 3.3966,-20.35143 6.7432,-9.46994 21.0887,-12.27293 31.5213,-6.15901 11.4221,6.6938 14.6784,22.85116 6.7107,33.29737 -6.7902,8.90248 -18.6145,12.09966 -28.1873,7.62161 z m 18.0285,-3.90221 c 13.145,-6.60425 14.3364,-26.05673 2.0606,-33.64358 -5.2798,-3.26311 -15.1494,-3.55833 -20.8258,-0.62295 -9.5121,4.91888 -12.5455,20.43118 -5.6076,28.67636 6.5066,7.73267 15.8452,9.87458 24.3728,5.59017 z m -15.9734,-17.66459 v -10.66667 h 6.4118 c 6.9899,0 10.1778,1.73347 11.5218,6.26513 0.598,2.0164 0.023,3.77824 -1.8415,5.64276 -2.1753,2.17534 -2.4587,3.37426 -1.4345,6.0682 1.7453,4.59048 -1.6577,4.61218 -3.7483,0.0239 -0.8909,-1.95534 -2.633,-3.33333 -4.214,-3.33333 -1.9861,0 -2.6953,0.8771 -2.6953,3.33333 0,2.07407 -0.7555,3.33333 -2,3.33333 -1.6111,0 -2,-2.07407 -2,-10.66666 z m 13.8617,-2.12033 c 1.2489,-3.25459 -0.2495,-4.54634 -5.2737,-4.54634 -4.005,0 -4.588,0.42359 -4.588,3.33333 0,2.90062 0.5873,3.33334 4.524,3.33334 2.9055,0 4.8151,-0.75859 5.3377,-2.12033 z"
       id="path1" />
  </g>
</svg>